GREETZ: UnDeaD - BadGirl2k9 - virusofsaten - foxyb - WICCYWOLF - lizzymwah1

VISIT http://www.seedboxworld.biz/ for all ur seedbox needs!

RELEASE NAME: Machete.2010.R5.LiNE.X264-SDTeam
RELEASED BY: UnDeaD & BadGirl2k9
SIZE: 447 MB

LANGUAGE: English
IMDb: http://www.imdb.com/title/tt0985694/

PLOT: After being betrayed by the organization who 
hired him, an ex-Federale launches a brutal rampage of 
revenge against his former boss.

SCREENS: 
http://i658.photobucket.com/albums/uu309/BadGirl2k9/screens/vlcsnap-2010-09-22-22h58m29s228.png 
http://i658.photobucket.com/albums/uu309/BadGirl2k9/screens/vlcsnap-2010-09-22-22h58m44s0.png 
http://i658.photobucket.com/albums/uu309/BadGirl2k9/screens/vlcsnap-2010-09-22-22h58m50s0.png

COVER IMAGE: http://bayimg.com/HAPMeAACe

General
Format                           : MPEG-4
Format profile                   : Base Media
Codec ID                         : isom
File size                        : 448 MiB
Duration                         : 1h 40mn
Overall bit rate                 : 622 Kbps
Encoded date                     : UTC 2010-09-21 21:54:07
Tagged date                      : UTC 2010-09-21 21:54:07

Video
ID                               : 1
Format                           : AVC
Format/Info                      : Advanced Video Codec
Format profile                   : High@L3.0
Format settings, CABAC           : Yes
Format settings, ReFrames        : 4 frames
Codec ID                         : avc1
Codec ID/Info                    : Advanced Video Coding
Duration                         : 1h 40mn
Bit rate mode                    : Variable
Bit rate                         : 493 Kbps
Nominal bit rate                 : 500 Kbps
Maximum bit rate                 : 3 897 Kbps
Width                            : 720 pixels
Height                           : 400 pixels
Display aspect ratio             : 16:9
Frame rate mode                  : Constant
Frame rate                       : 20.000 fps
Resolution                       : 8 bits
Colorimetry                      : 4:2:0
Scan type                        : Progressive
Bits/(Pixel*Frame)               : 0.086
Stream size                      : 355 MiB (79%)
Title                            : Imported with GPAC 0.4.6-DEV (internal rev. 5)
Writing library                  : x264 core 102 r1666 d058f37

Audio
ID                               : 2
Format                           : MPEG Audio
Format version                   : Version 1
Format profile                   : Layer 3
Codec ID                         : 6B
Duration                         : 1h 39mn
Bit rate mode                    : Constant
Bit rate                         : 128 Kbps
Maximum bit rate                 : 132 Kbps
Channel(s)                       : 2 channels
Sampling rate                    : 48.0 KHz
Stream size                      : 91.0 MiB (20%)
Title                            : Imported with GPAC 0.4.6-DEV (internal rev. 5)
Writing library                  : LAME3.98r

GROUP NOTE: Big thanks to seedboxworld.biz for the seedbox!
